<svg width="25" height="24" viewBox="0 0 25 24" fill="none" xmlns="http://www.w3.org/2000/svg">
<path fill-rule="evenodd" clip-rule="evenodd" d="M12.5503 4.64C14.8037 4.64 16.3237 5.61334 17.1903 6.42667L20.577 3.12C18.497 1.18667 15.7903 0 12.5503 0C7.85699 0 3.80366 2.69333 1.83032 6.61334L5.71032 9.62667C6.68366 6.73334 9.37699 4.64 12.5503 4.64Z" fill="#EA4335"/>
<path fill-rule="evenodd" clip-rule="evenodd" d="M24.0703 12.2667C24.0703 11.28 23.9903 10.56 23.817 9.81332H12.5503V14.2667H19.1636C19.0303 15.3733 18.3103 17.04 16.7103 18.16L20.497 21.0933C22.7636 19 24.0703 15.92 24.0703 12.2667Z" fill="#4285F4"/>
<path fill-rule="evenodd" clip-rule="evenodd" d="M5.72363 14.3733C5.47029 13.6267 5.32363 12.8267 5.32363 12C5.32363 11.1733 5.47029 10.3733 5.71029 9.62668L1.83029 6.61334C1.01696 8.24001 0.550293 10.0667 0.550293 12C0.550293 13.9333 1.01696 15.76 1.83029 17.3867L5.72363 14.3733Z" fill="#FBBC05"/>
<path fill-rule="evenodd" clip-rule="evenodd" d="M12.5503 24C15.7903 24 18.5103 22.9333 20.497 21.0933L16.7103 18.16C15.697 18.8667 14.337 19.36 12.5503 19.36C9.37696 19.36 6.68363 17.2667 5.72363 14.3733L1.84363 17.3867C3.81696 21.3067 7.85696 24 12.5503 24Z" fill="#34A853"/>
</svg>
