<svg width="25" height="20" viewBox="0 0 25 20" fill="none" xmlns="http://www.w3.org/2000/svg">
<path d="M8.09781 20C17.1545 20 22.1081 12.3047 22.1081 5.63144C22.1081 5.41287 22.1081 5.19529 22.0937 4.97869C23.0573 4.26381 23.8892 3.37867 24.5503 2.3647C23.6517 2.77329 22.6983 3.04112 21.7221 3.15923C22.7501 2.52818 23.5194 1.53552 23.8869 0.366057C22.9204 0.954335 21.8629 1.36889 20.7602 1.59182C20.0178 0.782212 19.0359 0.246107 17.9665 0.0664704C16.8971 -0.113166 15.7997 0.0736804 14.8443 0.598096C13.8888 1.12251 13.1285 1.95526 12.681 2.96748C12.2336 3.9797 12.1238 5.11495 12.3689 6.19756C10.4112 6.09685 8.49605 5.57507 6.74775 4.66609C4.99945 3.75712 3.45706 2.48127 2.22069 0.921344C1.59102 2.03306 1.39817 3.34911 1.68139 4.60154C1.96462 5.85397 2.70263 6.9486 3.74517 7.66257C2.96152 7.63902 2.19494 7.42221 1.51029 7.03049V7.09449C1.5106 8.26041 1.90414 9.39034 2.62416 10.2926C3.34418 11.1949 4.34635 11.8139 5.46069 12.0448C4.73577 12.2476 3.97517 12.2772 3.23733 12.1315C3.55211 13.1348 4.16472 14.0122 4.98953 14.641C5.81434 15.2698 6.81012 15.6185 7.83765 15.6384C6.81673 16.4614 5.64761 17.0699 4.39717 17.4291C3.14673 17.7883 1.83951 17.891 0.550293 17.7316C2.80213 19.2136 5.42222 19.9997 8.09781 19.9961" fill="#1DA1F2"/>
</svg>
